# xmcd
#
# Track frame offsets:
#	150
#	5654
#	28028
#	57203
#	84742
#	109871
#	134830
#	163501
#
# Disc length: 2458 seconds
#
# Revision: 2
# Processed by: cddbd v1.5.2PL0 Copyright (c) Steve Scherf et al.
# Submitted via: EZCDDA 4.3.2
#
DISCID=69099808
DTITLE=Lyfthrasyr - The Recent Foresight
DYEAR=1900
DGENRE=
TTITLE0=The Addiction To Peace (Intro)
TTITLE1=Rage Towards Apathy
TTITLE2=Venture And Value
TTITLE3=Servants In Silent Devotion
TTITLE4=Visions Of Hope And Despair
TTITLE5=Exhaling The Spirit Of Time
TTITLE6=Obsession In A Convenient Mann
TTITLE7=Perception Never Expected
EXTD=
EXTT0=
EXTT1=
EXTT2=
EXTT3=
EXTT4=
EXTT5=
EXTT6=
EXTT7=
PLAYORDER=
